<?xml version="1.0" ?><svg id="Layer_1" style="enable-background:new 0 0 512 512;" version="1.1" viewBox="0 0 512 512" xml:space="preserve" xmlns="http://www.w3.org/2000/svg" xmlns:xlink="http://www.w3.org/1999/xlink"><style type="text/css">
	.st0{fill:#030303;}
</style><g><g><path class="st0" d="M401.44,237.83c-11.81,0-21.41-9.61-21.41-21.42c0-11.81,9.61-21.41,21.41-21.41    c11.81,0,21.42,9.61,21.42,21.41C422.86,228.22,413.25,237.83,401.44,237.83z M401.44,200.05c-9.02,0-16.36,7.34-16.36,16.36    s7.34,16.37,16.36,16.37c9.02,0,16.37-7.34,16.37-16.37S410.47,200.05,401.44,200.05z"/></g><g><path class="st0" d="M272.82,128.59c-11.81,0-21.41-9.61-21.41-21.41s9.61-21.41,21.41-21.41c11.81,0,21.42,9.61,21.42,21.41    S284.63,128.59,272.82,128.59z M272.82,90.81c-9.02,0-16.36,7.34-16.36,16.36s7.34,16.36,16.36,16.36    c9.02,0,16.37-7.34,16.37-16.36S281.85,90.81,272.82,90.81z"/></g><g><g><path class="st0" d="M19.43,403.86c-0.65,0-1.29-0.25-1.79-0.74c-0.99-0.99-0.99-2.58,0-3.57l11.09-11.11     c0.47-0.47,1.12-0.74,1.79-0.74c1.4,0,2.53,1.13,2.53,2.52c0,0.78-0.35,1.47-0.9,1.93l-10.94,10.96     C20.72,403.62,20.08,403.86,19.43,403.86z"/></g><g><path class="st0" d="M43.43,379.84c-0.65,0-1.29-0.25-1.79-0.74c-0.99-0.99-0.99-2.58,0-3.57l11.11-11.11     c0.99-0.99,2.58-0.99,3.57,0c0.99,0.99,0.99,2.58,0,3.57L45.22,379.1C44.73,379.6,44.08,379.84,43.43,379.84z"/></g><g><path class="st0" d="M54.54,403.86c-0.65,0-1.29-0.25-1.79-0.74l-11.11-11.11c-0.99-0.99-0.99-2.58,0-3.57     c0.99-0.99,2.58-0.99,3.57,0l11.11,11.11c0.99,0.99,0.99,2.58,0,3.57C55.83,403.62,55.19,403.86,54.54,403.86z"/></g><g><path class="st0" d="M30.54,379.84h-0.02c-0.67,0-1.31-0.27-1.79-0.74l-11.09-11.11c-0.98-0.99-0.98-2.59,0-3.57     c0.99-0.98,2.59-0.99,3.57,0l11.01,11.03c0.51,0.46,0.83,1.13,0.83,1.87C33.05,378.71,31.93,379.84,30.54,379.84z"/></g></g><g><g><path class="st0" d="M248.82,361.81c-0.65,0-1.29-0.25-1.79-0.74c-0.99-0.99-0.99-2.58,0-3.57l11.09-11.11     c0.47-0.47,1.12-0.74,1.79-0.74c1.4,0,2.53,1.13,2.53,2.52c0,0.78-0.35,1.47-0.9,1.93l-10.94,10.96     C250.11,361.56,249.46,361.81,248.82,361.81z"/></g><g><path class="st0" d="M272.82,337.78c-0.65,0-1.29-0.25-1.79-0.74c-0.99-0.99-0.99-2.58,0-3.57l11.11-11.11     c0.99-0.99,2.58-0.99,3.57,0c0.99,0.99,0.99,2.58,0,3.57l-11.11,11.11C274.11,337.54,273.47,337.78,272.82,337.78z"/></g><g><path class="st0" d="M283.93,361.81c-0.65,0-1.29-0.25-1.79-0.74l-11.11-11.11c-0.99-0.99-0.99-2.58,0-3.57s2.58-0.99,3.57,0     l11.11,11.11c0.99,0.99,0.99,2.58,0,3.57C285.22,361.56,284.58,361.81,283.93,361.81z"/></g><g><path class="st0" d="M259.93,337.78h-0.02c-0.67,0-1.31-0.27-1.79-0.74l-11.09-11.11c-0.98-0.99-0.98-2.59,0-3.57     c0.99-0.98,2.59-0.99,3.57,0l11.01,11.03c0.51,0.46,0.83,1.13,0.83,1.87C262.44,336.65,261.32,337.78,259.93,337.78z"/></g></g><g><g><g><path class="st0" d="M440.96,438.19h-48.45c-1.4,0-2.52-1.13-2.52-2.52c0-1.39,1.13-2.52,2.52-2.52h48.45      c1.4,0,2.52,1.13,2.52,2.52C443.48,437.06,442.35,438.19,440.96,438.19z"/></g><g><path class="st0" d="M378.73,438.19H357.7c-1.4,0-2.52-1.13-2.52-2.52c0-1.39,1.13-2.52,2.52-2.52h21.03      c1.4,0,2.52,1.13,2.52,2.52C381.25,437.06,380.12,438.19,378.73,438.19z"/></g></g><g><g><path class="st0" d="M451.47,460.06h-48.45c-1.4,0-2.52-1.13-2.52-2.52c0-1.39,1.13-2.52,2.52-2.52h48.45      c1.4,0,2.53,1.13,2.53,2.52C454,458.93,452.87,460.06,451.47,460.06z"/></g><g><path class="st0" d="M389.24,460.06h-21.03c-1.4,0-2.52-1.13-2.52-2.52c0-1.39,1.13-2.52,2.52-2.52h21.03      c1.4,0,2.52,1.13,2.52,2.52C391.77,458.93,390.64,460.06,389.24,460.06z"/></g></g></g><g><g><g><path class="st0" d="M254.48,449.13h-48.45c-1.4,0-2.52-1.13-2.52-2.52c0-1.39,1.13-2.52,2.52-2.52h48.45      c1.4,0,2.52,1.13,2.52,2.52C257.01,448,255.88,449.13,254.48,449.13z"/></g><g><path class="st0" d="M192.25,449.13h-21.03c-1.4,0-2.52-1.13-2.52-2.52c0-1.39,1.13-2.52,2.52-2.52h21.03      c1.4,0,2.52,1.13,2.52,2.52C194.77,448,193.64,449.13,192.25,449.13z"/></g></g><g><g><path class="st0" d="M265,471h-48.45c-1.4,0-2.52-1.13-2.52-2.52c0-1.39,1.13-2.52,2.52-2.52H265c1.4,0,2.52,1.13,2.52,2.52      C267.52,469.87,266.39,471,265,471z"/></g><g><path class="st0" d="M202.76,471h-21.03c-1.4,0-2.53-1.13-2.53-2.52c0-1.39,1.13-2.52,2.53-2.52h21.03      c1.4,0,2.52,1.13,2.52,2.52C205.29,469.87,204.16,471,202.76,471z"/></g></g></g><g><g><path class="st0" d="M470.26,136.22c-1.4,0-2.53-1.13-2.53-2.53V85.25c0-1.39,1.13-2.52,2.53-2.52c1.4,0,2.52,1.13,2.52,2.52     v48.45C472.78,135.09,471.65,136.22,470.26,136.22z"/></g><g><path class="st0" d="M470.26,171.04c-1.4,0-2.53-1.13-2.53-2.53v-21.03c0-1.39,1.13-2.52,2.53-2.52c1.4,0,2.52,1.13,2.52,2.52     v21.03C472.78,169.91,471.65,171.04,470.26,171.04z"/></g></g><g><g><path class="st0" d="M15.71,103.73c-1.4,0-2.52-1.13-2.52-2.52V52.76c0-1.39,1.13-2.52,2.52-2.52s2.52,1.13,2.52,2.52v48.45     C18.23,102.6,17.1,103.73,15.71,103.73z"/></g><g><path class="st0" d="M15.71,138.54c-1.4,0-2.52-1.13-2.52-2.52v-21.03c0-1.39,1.13-2.53,2.52-2.53s2.52,1.13,2.52,2.53v21.03     C18.23,137.41,17.1,138.54,15.71,138.54z"/></g></g><g><g><g><path class="st0" d="M453.96,261.16c-1.4,0-2.53-1.13-2.53-2.52V142.06c-3.73-2.23-18.24-9.19-43.81-1.16      c-32.15,10.11-58.49,0.37-59.6-0.05c-0.98-0.37-1.63-1.31-1.63-2.36V78.89c0-0.83,0.41-1.6,1.09-2.08      c0.68-0.47,1.55-0.58,2.33-0.29c0.26,0.09,25.88,9.51,56.3-0.05c23.63-7.42,38.6-2.98,45.32,0.24V63.95      c0-1.39,1.13-2.52,2.53-2.52c1.4,0,2.52,1.13,2.52,2.52v76.73c0,0.02,0,0.03,0,0.05v117.91      C456.49,260.03,455.36,261.16,453.96,261.16z M351.45,136.66c6.12,1.88,28.64,7.59,54.67-0.59c23.62-7.42,38.61-2.98,45.32,0.23      V82.46c-3.72-2.22-18.23-9.2-43.81-1.16c-25.84,8.12-47.93,3.43-56.18,1.06V136.66z"/></g></g><g><g><g><path class="st0" d="M490.1,315.14h-61.97c-7.9,0-14.32-6.43-14.32-14.33c0-8.02,6.43-14.45,14.32-14.45h61.97       c7.9,0,14.32,6.43,14.32,14.33C504.42,308.71,498,315.14,490.1,315.14z M428.13,291.42c-5.11,0-9.27,4.16-9.27,9.28       c0,5.23,4.16,9.4,9.27,9.4h61.97c5.11,0,9.27-4.16,9.27-9.28c0-5.23-4.16-9.4-9.27-9.4H428.13z"/></g><g><path class="st0" d="M494.17,338.86h-66.04c-7.9,0-14.32-6.43-14.32-14.33c0-8.02,6.43-14.44,14.32-14.44h66.04       c7.9,0,14.33,6.43,14.33,14.33C508.5,332.43,502.07,338.86,494.17,338.86z M428.13,315.14c-5.11,0-9.27,4.16-9.27,9.28       c0,5.23,4.16,9.39,9.27,9.39h66.04c5.11,0,9.28-4.16,9.28-9.28c0-5.23-4.16-9.39-9.28-9.39H428.13z"/></g><g><path class="st0" d="M490.1,362.58h-61.97c-7.9,0-14.32-6.43-14.32-14.33c0-8.02,6.43-14.45,14.32-14.45h61.97       c7.9,0,14.32,6.43,14.32,14.33C504.42,356.15,498,362.58,490.1,362.58z M428.13,338.86c-5.11,0-9.27,4.16-9.27,9.28       c0,5.23,4.16,9.39,9.27,9.39h61.97c5.11,0,9.27-4.16,9.27-9.28c0-5.23-4.16-9.4-9.27-9.4H428.13z"/></g><g><path class="st0" d="M476.52,386.3h-48.39c-7.9,0-14.32-6.43-14.32-14.33c0-8.02,6.43-14.45,14.32-14.45h48.39       c7.9,0,14.32,6.43,14.32,14.33C490.84,379.87,484.42,386.3,476.52,386.3z M428.13,362.58c-5.11,0-9.27,4.16-9.27,9.28       c0,5.23,4.16,9.4,9.27,9.4h48.39c5.11,0,9.27-4.16,9.27-9.28c0-5.23-4.16-9.4-9.27-9.4H428.13z"/></g></g><g><path class="st0" d="M445.12,291.42c-0.23,0-0.46,0-0.7,0h-42.98c-1.4,0-2.52-1.13-2.52-2.52c0-1.39,1.13-2.53,2.52-2.53h43.01      c10.23,0.11,17.85-2.48,22.73-7.72c4.72-5.06,5.77-11.42,5.97-14.77h-92.92c-7.5,3.52-18.29,20.08-21.88,26.28      c-0.45,0.78-1.28,1.26-2.18,1.26H319.4c-1.4,0-2.52-1.13-2.52-2.52c0-1.39,1.13-2.53,2.52-2.53h35.33      c3.2-5.35,14.6-23.5,24.03-27.35c0.3-0.12,0.63-0.19,0.96-0.19h95.98c1.31,0,2.41,1.01,2.52,2.32      c0.04,0.49,0.88,12.14-7.33,20.95C465.11,288.28,456.44,291.42,445.12,291.42z"/></g><g><path class="st0" d="M352.69,369.52c-1.32,0-2.43-1.03-2.52-2.36c-0.09-1.39,0.97-2.59,2.36-2.68      c25.91-1.67,32.06-26.34,32.11-26.59c0.32-1.36,1.68-2.2,3.04-1.87c1.36,0.32,2.2,1.68,1.87,3.04      c-0.07,0.28-7.11,28.55-36.7,30.46C352.81,369.52,352.75,369.52,352.69,369.52z"/></g><g><path class="st0" d="M345.36,362.18c-1.32,0-2.43-1.03-2.52-2.36c-0.09-1.39,0.97-2.59,2.36-2.68      c25.81-1.66,31.87-25.57,32.11-26.59c0.33-1.35,1.68-2.19,3.04-1.87c1.35,0.32,2.19,1.68,1.87,3.04      c-0.07,0.28-7.11,28.55-36.7,30.46C345.47,362.18,345.41,362.18,345.36,362.18z"/></g><g><path class="st0" d="M442.19,386.3h-76.06c-0.8-0.02-18.38-0.56-34.99-16.57h-17.98c-1.4,0-2.52-1.13-2.52-2.52      c0-1.39,1.13-2.53,2.52-2.53h19.01c0.67,0,1.31,0.26,1.78,0.73c15.32,15.23,32.07,15.83,32.24,15.84l76,0      c1.4,0,2.53,1.13,2.53,2.52C444.71,385.17,443.58,386.3,442.19,386.3z"/></g></g></g><g><g><g><path class="st0" d="M99.01,407.4h-17.2c-1.4,0-2.53-1.13-2.53-2.52v-55.44c0-5.28,4.29-9.57,9.57-9.57h50.19v-43.43      c0-5.28,4.29-9.57,9.57-9.57H197v-43.38c0-5.28,4.29-9.57,9.57-9.57h52v-43.91c0-5.28,4.29-9.57,9.57-9.57h49.09      c1.4,0,2.52,1.13,2.52,2.53v16.9c0,2.66-1.12,5.22-3.07,7.02h0L100.72,406.73C100.26,407.16,99.65,407.4,99.01,407.4z       M84.33,402.35h13.69l215.24-199.16c0.92-0.85,1.45-2.06,1.45-3.32V185.5h-46.57c-2.49,0-4.52,2.03-4.52,4.52v46.43      c0,1.39-1.13,2.53-2.52,2.53h-54.53c-2.49,0-4.52,2.03-4.52,4.52v45.9c0,1.39-1.13,2.52-2.53,2.52h-50.91      c-2.49,0-4.52,2.03-4.52,4.52v45.95c0,1.39-1.13,2.52-2.53,2.52H88.85c-2.49,0-4.52,2.03-4.52,4.52V402.35z M314.97,205.04H315      H314.97z"/></g><g><g><g><g><path class="st0" d="M121.04,320.17H75.47c-0.7,0-1.37-0.29-1.85-0.8c-0.48-0.51-0.72-1.2-0.67-1.9         c0.2-2.81,5.12-69.25,26.39-100.54c0.49-0.73,1.35-1.14,2.21-1.1c2.8,0.14,27.34,1.68,28.06,14.15         c0.03,0.46-0.07,0.92-0.29,1.33c-0.26,0.49-25.98,49.46-17.32,73.4c1.86,5.15,5.14,8.62,10,10.61         c1.12,0.46,1.75,1.64,1.52,2.82C123.29,319.31,122.25,320.17,121.04,320.17z M78.21,315.12h34.45         c-2.35-2.35-4.16-5.25-5.41-8.71c-8.93-24.66,13.86-70.24,17.23-76.77c-1.21-5.46-14.21-8.1-21.75-8.69         C85.19,248.1,79.36,302.4,78.21,315.12z"/></g><g><path class="st0" d="M173.35,280.29h-38.63c-0.76,0-1.48-0.34-1.96-0.93c-0.48-0.59-0.67-1.36-0.51-2.11         c0.31-1.49,7.64-36.57,13.37-52.84c0.57-1.62,0.43-3.06-0.45-4.53c-3.97-6.63-21.13-11.45-35.86-13.74         c-4.95-0.77-9.35-3.06-12.4-6.46c-4.43-4.93-8.09-13.95-0.53-28.97c1.66-9.61,1.78-19.48,0.25-20.89         c-0.01,0.1-1.76,0.54-5.8,5.8c-3.04,3.96-5.75,8.54-8.06,13.6c-2.93,6.43-8.11,18.12-9.92,24.15         c-1.46,4.86-6.54,7.36-11.87,5.81c-7.31-2.14-12.74-11.17-8.37-26.54c5.29-18.65,32.19-48.37,47.75-64.43         c6.22-6.43,14.82-10.13,23.6-10.17c0.76,0,1.55,0,2.38,0.02c0.03,0,0.06,0,0.09,0c1.3,0.08,31.92,2.21,36.14,26.54         c3.48,20.07,22.39,18.23,23.19,18.14c0.09-0.01,0.21-0.01,0.29-0.01l10.86,0.08c0.71,0,1.39,0.31,1.86,0.84         c0.24,0.27,5.93,6.7,3.95,13.69c-1.39,4.9-6.05,8.56-13.87,10.87c-17.84,5.28-32.31-4.47-37.99-9.2         c-2.15,4.61-5.69,13.95-3.16,21.13c1.31,3.72,4.07,6.35,8.45,8.04c14.32,5.52,23.24,9.27,25.95,16.42         c1.61,4.26,0.79,9.27-2.58,15.78c-5.47,10.56-15.67,30.21-12.15,40.2c0.83,2.34,2.39,3.99,4.77,5.05         c2.98,1.32,5.39,3.05,7.15,5.16c2,2.4,2.57,4.56,1.7,6.42C179.69,279.96,176,280.29,173.35,280.29z M137.83,275.24h35.52         c1.44,0,2.29-0.14,2.75-0.26c-0.14-0.23-0.35-0.55-0.7-0.96c-1.26-1.51-3.05-2.78-5.31-3.78c-3.68-1.62-6.2-4.31-7.49-7.99         c-3.91-11.11,4.36-28.64,12.43-44.2c2.67-5.14,3.41-8.84,2.34-11.66c-1.91-5.03-9.98-8.45-23.04-13.49         c-5.76-2.22-9.6-5.95-11.4-11.09c-4.24-12.07,4.62-27.5,5-28.15c0.4-0.68,1.09-1.14,1.88-1.23c0.8-0.09,1.57,0.18,2.12,0.75         c0.16,0.16,15.84,16.02,35.5,10.2c4.15-1.23,9.34-3.51,10.44-7.4c0.9-3.19-1.12-6.58-2.21-8.11l-9.53-0.07         c-2.27,0.17-24.46,1.24-28.54-22.32c-3.47-20.02-30.23-22.27-31.43-22.36c-0.76-0.02-1.49-0.02-2.18-0.02         c-7.42,0.03-14.71,3.18-19.99,8.63c-12.26,12.65-41.34,44.05-46.52,62.29c-3.42,12.04,0.01,18.88,4.93,20.31         c2.24,0.65,4.88,0.03,5.62-2.41c1.9-6.32,7.18-18.24,10.16-24.79c2.46-5.41,5.37-10.31,8.65-14.58         c3.36-4.37,7.75-9.16,11.9-7.32c5.89,2.6,4.14,17.86,2.56,26.73c-0.04,0.25-0.12,0.49-0.24,0.71         c-5.21,10.18-5.34,18.13-0.39,23.64c2.27,2.53,5.62,4.25,9.42,4.84c12.26,1.91,33.68,6.54,39.42,16.14         c1.63,2.74,1.94,5.78,0.88,8.8C145.72,239.3,139.78,266.19,137.83,275.24z"/></g></g><g><path class="st0" d="M137.54,94.95c-12.88,0-23.35-12.1-23.35-26.97S124.67,41,137.54,41s23.35,12.1,23.35,26.97        S150.42,94.95,137.54,94.95z M137.54,46.05c-10.09,0-18.3,9.83-18.3,21.92s8.21,21.92,18.3,21.92s18.3-9.83,18.3-21.92        S147.64,46.05,137.54,46.05z"/></g></g><g><g><path class="st0" d="M57.16,261.58c-0.39,0-0.79-0.09-1.14-0.27L4.88,235.35c-0.6-0.3-1.05-0.83-1.26-1.47        c-0.21-0.64-0.16-1.33,0.15-1.93l18.31-36.06c0.63-1.24,2.15-1.74,3.4-1.11l51.13,25.96c1.24,0.63,1.74,2.15,1.11,3.39        L59.41,260.2c-0.3,0.6-0.83,1.05-1.47,1.26C57.69,261.54,57.43,261.58,57.16,261.58z M9.42,231.99l46.63,23.67l16.02-31.56        l-46.63-23.67L9.42,231.99z"/></g><g><path class="st0" d="M62.5,218.94c-0.53,0-1.06-0.16-1.51-0.5c-1.12-0.83-1.35-2.42-0.51-3.53l2.55-4.99        c0.11-0.21-0.01-0.56-0.21-0.66L42.9,199.14c-0.23-0.12-0.54-0.02-0.66,0.22l-2.51,4.93c-0.4,1.34-1.81,2.12-3.16,1.72        c-1.33-0.4-2.1-1.78-1.69-3.12c0.08-0.27,0.19-0.58,0.34-0.87l2.51-4.95c1.38-2.72,4.73-3.82,7.45-2.43l19.92,10.11        c1.32,0.67,2.3,1.81,2.75,3.22c0.46,1.41,0.35,2.91-0.32,4.23l-2.5,4.93c-0.16,0.31-0.34,0.57-0.5,0.8        C64.03,218.59,63.27,218.94,62.5,218.94z"/></g></g></g></g><g><path class="st0" d="M35.4,240.43c-0.42,0-0.83-0.1-1.21-0.31c-0.59-0.32-1.03-0.86-1.22-1.5l-4.5-15.2     c-0.39-1.34,0.37-2.74,1.7-3.14l15.2-4.5c0.64-0.19,1.33-0.12,1.92,0.2c0.59,0.32,1.03,0.86,1.22,1.5l4.5,15.2     c0.39,1.34-0.37,2.74-1.7,3.14l-15.2,4.5C35.88,240.39,35.64,240.43,35.4,240.43z M34.03,224.4l3.07,10.36l10.36-3.07     l-3.07-10.36L34.03,224.4z"/></g></g></g></svg>