<?xml version="1.0" ?><svg id="Layer_1" style="enable-background:new 0 0 512 512;" version="1.1" viewBox="0 0 512 512" xml:space="preserve" xmlns="http://www.w3.org/2000/svg" xmlns:xlink="http://www.w3.org/1999/xlink"><style type="text/css">
	.st0{fill:#030303;}
</style><g><g><path class="st0" d="M53.59,246.54c-10.52,0-19.09-8.57-19.09-19.11c0-10.54,8.56-19.11,19.09-19.11s19.09,8.57,19.09,19.11    C72.68,237.97,64.12,246.54,53.59,246.54z M53.59,213.38c-7.74,0-14.04,6.31-14.04,14.06c0,7.75,6.3,14.06,14.04,14.06    s14.04-6.31,14.04-14.06C67.63,219.68,61.33,213.38,53.59,213.38z"/></g><g><path class="st0" d="M477.3,310.43c-10.52,0-19.09-8.57-19.09-19.11s8.56-19.11,19.09-19.11s19.09,8.57,19.09,19.11    S487.83,310.43,477.3,310.43z M477.3,277.27c-7.74,0-14.04,6.31-14.04,14.06s6.3,14.06,14.04,14.06s14.04-6.31,14.04-14.06    S485.04,277.27,477.3,277.27z"/></g><g><g><path class="st0" d="M38.2,88.06c-0.64,0-1.29-0.25-1.78-0.74c-0.99-0.98-0.99-2.58,0-3.57L46.14,74     c0.47-0.48,1.12-0.74,1.79-0.74c1.39,0,2.53,1.13,2.53,2.53c0,0.77-0.34,1.46-0.88,1.92l-9.58,9.61     C39.49,87.81,38.85,88.06,38.2,88.06z"/></g><g><path class="st0" d="M59.24,66.97c-0.65,0-1.29-0.25-1.78-0.74c-0.99-0.99-0.99-2.58,0-3.57l9.74-9.75     c0.98-0.99,2.58-0.99,3.57,0c0.99,0.99,0.99,2.58,0,3.57l-9.74,9.75C60.54,66.73,59.89,66.97,59.24,66.97z"/></g><g><path class="st0" d="M68.98,88.06c-0.65,0-1.29-0.25-1.79-0.74l-9.74-9.75c-0.99-0.99-0.99-2.59,0-3.57     c0.98-0.99,2.58-0.99,3.57,0l9.74,9.75c0.99,0.99,0.99,2.59,0,3.57C70.28,87.81,69.63,88.06,68.98,88.06z"/></g><g><path class="st0" d="M47.94,66.97h-0.01c-0.67,0-1.31-0.27-1.79-0.74l-9.72-9.75c-0.99-0.99-0.98-2.59,0-3.57     c0.99-0.98,2.59-0.98,3.57,0l9.65,9.68c0.5,0.46,0.82,1.12,0.82,1.86C50.46,65.84,49.33,66.97,47.94,66.97z"/></g></g><g><g><path class="st0" d="M360.14,503.78c-0.65,0-1.29-0.25-1.78-0.74c-0.99-0.98-0.99-2.58,0-3.57l9.72-9.75     c0.47-0.48,1.12-0.74,1.79-0.74c1.4,0,2.53,1.13,2.53,2.52c0,0.77-0.34,1.46-0.88,1.92l-9.58,9.61     C361.43,503.53,360.79,503.78,360.14,503.78z"/></g><g><path class="st0" d="M381.18,482.69c-0.65,0-1.29-0.25-1.79-0.74c-0.99-0.99-0.99-2.58,0-3.57l9.74-9.75     c0.99-0.99,2.59-0.98,3.57,0c0.99,0.99,0.99,2.58,0,3.57l-9.74,9.75C382.48,482.44,381.83,482.69,381.18,482.69z"/></g><g><path class="st0" d="M390.92,503.78c-0.65,0-1.29-0.25-1.79-0.74l-9.74-9.75c-0.98-0.99-0.98-2.59,0-3.57     c0.99-0.98,2.59-0.98,3.57,0l9.74,9.75c0.98,0.99,0.98,2.59,0,3.57C392.21,503.53,391.57,503.78,390.92,503.78z"/></g><g><path class="st0" d="M369.88,482.69h-0.01c-0.67,0-1.31-0.27-1.79-0.74l-9.72-9.75c-0.98-0.99-0.98-2.59,0-3.57     c0.99-0.98,2.59-0.98,3.57,0l9.65,9.68c0.51,0.46,0.82,1.12,0.82,1.86C372.39,481.56,371.27,482.69,369.88,482.69z"/></g></g><g><g><g><path class="st0" d="M275.47,8.55H233c-1.39,0-2.52-1.13-2.52-2.53S231.6,3.5,233,3.5h42.47c1.4,0,2.52,1.13,2.52,2.53      S276.87,8.55,275.47,8.55z"/></g><g><path class="st0" d="M220.91,8.55h-18.44c-1.39,0-2.52-1.13-2.52-2.53s1.13-2.53,2.52-2.53h18.44c1.39,0,2.52,1.13,2.52,2.53      S222.31,8.55,220.91,8.55z"/></g></g><g><g><path class="st0" d="M284.69,27.75h-42.47c-1.4,0-2.53-1.13-2.53-2.52s1.13-2.52,2.53-2.52h42.47c1.4,0,2.53,1.13,2.53,2.52      S286.09,27.75,284.69,27.75z"/></g><g><path class="st0" d="M230.13,27.75H211.7c-1.39,0-2.52-1.13-2.52-2.52s1.13-2.52,2.52-2.52h18.44c1.39,0,2.53,1.13,2.53,2.52      S231.53,27.75,230.13,27.75z"/></g></g></g><g><g><g><path class="st0" d="M91.13,489.3H48.66c-1.39,0-2.53-1.13-2.53-2.52s1.13-2.52,2.53-2.52h42.47c1.39,0,2.53,1.13,2.53,2.52      S92.53,489.3,91.13,489.3z"/></g><g><path class="st0" d="M36.57,489.3H18.14c-1.39,0-2.52-1.13-2.52-2.52s1.13-2.52,2.52-2.52h18.44c1.39,0,2.53,1.13,2.53,2.52      S37.97,489.3,36.57,489.3z"/></g></g><g><g><path class="st0" d="M100.35,508.5H57.88c-1.39,0-2.53-1.13-2.53-2.52s1.13-2.52,2.53-2.52h42.48c1.39,0,2.52,1.13,2.52,2.52      S101.75,508.5,100.35,508.5z"/></g><g><path class="st0" d="M45.79,508.5H27.36c-1.39,0-2.53-1.13-2.53-2.52s1.13-2.52,2.53-2.52h18.44c1.39,0,2.53,1.13,2.53,2.52      S47.19,508.5,45.79,508.5z"/></g></g></g><g><g><path class="st0" d="M436.15,429.35c-1.4,0-2.52-1.13-2.52-2.53v-42.53c0-1.4,1.13-2.52,2.52-2.52c1.4,0,2.53,1.13,2.53,2.52     v42.53C438.68,428.22,437.55,429.35,436.15,429.35z"/></g><g><path class="st0" d="M436.15,459.91c-1.4,0-2.52-1.13-2.52-2.52v-18.46c0-1.4,1.13-2.52,2.52-2.52c1.4,0,2.53,1.13,2.53,2.52     v18.46C438.68,458.78,437.55,459.91,436.15,459.91z"/></g></g><g><g><path class="st0" d="M47.94,329.14c-1.39,0-2.53-1.13-2.53-2.52v-42.53c0-1.4,1.13-2.52,2.53-2.52s2.52,1.13,2.52,2.52v42.53     C50.46,328.01,49.33,329.14,47.94,329.14z"/></g><g><path class="st0" d="M47.94,359.71c-1.39,0-2.53-1.13-2.53-2.53v-18.46c0-1.4,1.13-2.53,2.53-2.53s2.52,1.13,2.52,2.53v18.46     C50.46,358.58,49.33,359.71,47.94,359.71z"/></g></g><g><g><g><path d="M328.76,456.88H113.92c-14.23,0-25.81-11.59-25.81-25.84V80.95c0-14.25,11.58-25.84,25.81-25.84h259.33      c14.23,0,25.81,11.59,25.81,25.84v3.27h-5.05v-3.27c0-11.46-9.31-20.79-20.76-20.79H113.92c-11.45,0-20.76,9.33-20.76,20.79      v350.09c0,11.46,9.31,20.79,20.76,20.79h212.79l67.3-65.58V220.72h5.05v167.67L328.76,456.88z"/></g><g><path d="M330.26,454.37h-5.05v-54.49c0-8.31,6.76-15.08,15.06-15.08h56.26v5.05h-56.26c-5.52,0-10.01,4.5-10.01,10.03V454.37z"/></g></g><g><g><g><g><path d="M180.95,158.98c-11.52,0-20.88-9.37-20.88-20.88v-10.18c0-11.52,9.37-20.88,20.88-20.88s20.88,9.37,20.88,20.88v10.18        C201.84,149.61,192.47,158.98,180.95,158.98z M180.95,112.08c-8.73,0-15.83,7.1-15.83,15.83v10.18        c0,8.73,7.1,15.83,15.83,15.83s15.83-7.1,15.83-15.83v-10.18C196.79,119.18,189.68,112.08,180.95,112.08z"/></g><g><path d="M180.73,126.81c-9.62,0-16.73-6.12-17.13-6.47c-1.05-0.92-1.15-2.52-0.23-3.56c0.92-1.05,2.51-1.15,3.56-0.23        c0.45,0.39,10.52,8.94,21.87,3.25c1.25-0.62,2.76-0.12,3.39,1.13c0.63,1.25,0.12,2.76-1.13,3.39        C187.45,126.12,183.95,126.81,180.73,126.81z"/></g></g><g><path d="M214.09,203.24c-1.39,0-2.52-1.13-2.52-2.52v-23.85c0-3.08-0.78-5.9-2.27-8.15c-1.04-1.59-2.92-2.68-5.02-2.93       c-2.07-0.24-5.32,0.2-9.11,3.73c-0.33,0.29-6.27,5.27-14.09,5.35c-0.04,0-0.08,0-0.12,0c-0.04,0-0.08,0-0.13,0       c-7.82-0.08-13.76-5.06-14.01-5.27c-3.87-3.6-7.13-4.03-9.19-3.8c-2.1,0.25-3.97,1.35-5.02,2.93       c-1.48,2.25-2.27,5.07-2.27,8.15v23.85c0,1.4-1.13,2.52-2.52,2.52s-2.52-1.13-2.52-2.52v-23.85c0-4.07,1.07-7.85,3.1-10.93       c1.85-2.81,5.08-4.74,8.63-5.16c3.12-0.38,7.94,0.19,13.15,5.04l0,0c0,0,4.82,3.97,10.77,3.99c5.98-0.02,10.81-4.03,10.86-4.07       c5.12-4.77,9.94-5.34,13.06-4.96c3.56,0.42,6.78,2.36,8.64,5.16c2.03,3.08,3.1,6.86,3.1,10.93v23.85       C216.61,202.11,215.48,203.24,214.09,203.24z"/></g></g><g><path d="M180.95,214.5c-32.69,0-59.29-26.63-59.29-59.36s26.6-59.36,59.29-59.36s59.29,26.63,59.29,59.36      S213.64,214.5,180.95,214.5z M180.95,100.82c-29.91,0-54.24,24.36-54.24,54.31s24.33,54.31,54.24,54.31s54.24-24.36,54.24-54.31      S210.86,100.82,180.95,100.82z"/></g></g><g><path d="M245.2,233.28H134.68c-1.39,0-2.52-1.13-2.52-2.53c0-1.4,1.13-2.52,2.52-2.52H245.2c1.4,0,2.53,1.13,2.53,2.52     C247.72,232.16,246.59,233.28,245.2,233.28z"/></g><g><path d="M245.2,255.81H134.68c-1.39,0-2.52-1.13-2.52-2.52c0-1.4,1.13-2.53,2.52-2.53H245.2c1.4,0,2.53,1.13,2.53,2.53     C247.72,254.68,246.59,255.81,245.2,255.81z"/></g><g><path d="M227.4,278.33h-92.72c-1.39,0-2.52-1.13-2.52-2.52c0-1.4,1.13-2.53,2.52-2.53h92.72c1.39,0,2.53,1.13,2.53,2.53     C229.93,277.2,228.79,278.33,227.4,278.33z"/></g><g><g><g><path d="M396.5,213.19c-15.43,0-30.02-5.84-41.22-16.55c-11.55-11.03-18.11-25.91-18.49-41.89       c-0.77-32.99,25.4-60.45,58.35-61.22c15.97-0.35,31.11,5.5,42.66,16.53c11.55,11.03,18.11,25.91,18.49,41.89l0,0       c0.37,15.98-5.49,31.15-16.51,42.71c-11.02,11.56-25.88,18.14-41.84,18.51C397.46,213.18,396.97,213.19,396.5,213.19z        M396.57,98.56c-0.44,0-0.87,0.01-1.31,0.02c-30.16,0.71-54.12,25.85-53.41,56.06c0.34,14.63,6.35,28.25,16.93,38.35       c10.57,10.1,24.51,15.51,39.05,15.13c14.61-0.34,28.21-6.36,38.3-16.95c10.09-10.59,15.46-24.48,15.11-39.11l0,0       c-0.34-14.63-6.35-28.25-16.93-38.36C424.05,103.92,410.69,98.56,396.57,98.56z"/></g><g><path d="M396.53,166.21c-3.32,0-6.45-1.26-8.86-3.56c-2.48-2.37-3.89-5.57-3.97-9c-0.17-7.09,5.46-12.99,12.54-13.16       c3.43-0.04,6.69,1.18,9.17,3.55c2.48,2.37,3.89,5.57,3.97,9l0,0c0.08,3.43-1.18,6.69-3.55,9.18c-2.37,2.49-5.57,3.9-9,3.98       C396.73,166.21,396.63,166.21,396.53,166.21z M396.54,145.55c-0.06,0-0.13,0-0.19,0c-4.3,0.1-7.71,3.68-7.61,7.99       c0.05,2.09,0.9,4.03,2.41,5.47c1.51,1.44,3.58,2.21,5.56,2.16c2.08-0.05,4.02-0.9,5.46-2.41c1.44-1.51,2.2-3.49,2.15-5.58l0,0       c-0.05-2.09-0.9-4.03-2.41-5.47C400.45,146.31,398.55,145.55,396.54,145.55z"/></g><g><path d="M396.29,145.55c-1.37,0-2.49-1.09-2.53-2.47l-0.58-24.65c-0.03-1.39,1.07-2.55,2.47-2.58       c1.39-0.01,2.55,1.07,2.58,2.47l0.58,24.65c0.03,1.39-1.07,2.55-2.47,2.58C396.33,145.55,396.31,145.55,396.29,145.55z"/></g><g><path d="M406.85,155.64c-1.37,0-2.49-1.09-2.52-2.47c-0.03-1.39,1.07-2.55,2.47-2.58l14.77-0.35c1.34-0.04,2.55,1.07,2.58,2.47       c0.03,1.39-1.07,2.55-2.47,2.58l-14.77,0.35C406.89,155.64,406.87,155.64,406.85,155.64z"/></g><g><path d="M395.5,111.67c-1.37,0-2.49-1.09-2.52-2.47l-0.11-4.55c-0.03-1.4,1.07-2.55,2.47-2.58c1.36-0.12,2.55,1.07,2.58,2.47       l0.11,4.55c0.03,1.4-1.07,2.55-2.47,2.58C395.54,111.67,395.52,111.67,395.5,111.67z"/></g><g><path d="M440.68,154.84c-1.37,0-2.49-1.09-2.52-2.47c-0.03-1.39,1.07-2.55,2.47-2.58l4.54-0.11c1.34-0.01,2.55,1.07,2.58,2.47       s-1.07,2.55-2.47,2.58l-4.54,0.11C440.72,154.84,440.7,154.84,440.68,154.84z"/></g><g><path d="M397.67,204.63c-1.37,0-2.49-1.09-2.52-2.47l-0.11-4.55c-0.03-1.4,1.07-2.55,2.47-2.58c1.36-0.07,2.55,1.07,2.58,2.47       l0.11,4.55c0.03,1.4-1.07,2.55-2.47,2.58C397.71,204.63,397.69,204.63,397.67,204.63z"/></g><g><path d="M347.85,157.02c-1.37,0-2.49-1.09-2.52-2.47c-0.03-1.39,1.07-2.55,2.47-2.58l4.54-0.11c1.33-0.11,2.55,1.07,2.58,2.47       c0.03,1.39-1.07,2.55-2.47,2.58l-4.54,0.11C347.89,157.02,347.87,157.02,347.85,157.02z"/></g></g><g><g><path d="M365.83,228.5c-0.32,0-0.65-0.06-0.96-0.19c-1.29-0.53-1.9-2.01-1.37-3.3l8.2-19.94c0.53-1.29,2.02-1.89,3.3-1.37       c1.29,0.53,1.9,2.01,1.37,3.3l-8.2,19.94C367.76,227.91,366.82,228.5,365.83,228.5z"/></g><g><path d="M417.54,102.59c-0.32,0-0.64-0.06-0.95-0.19c-1.29-0.53-1.91-2-1.38-3.29c0.88-2.17,1.72-4.22,2.52-6.15       c0.54-1.29,2.02-1.89,3.3-1.37c1.29,0.53,1.9,2.01,1.37,3.3c-0.79,1.92-1.63,3.97-2.51,6.13       C419.48,102,418.53,102.59,417.54,102.59z"/></g><g><path d="M434.74,98.52c-0.29,0-0.58-0.05-0.86-0.15l-26.39-9.81c-1.31-0.49-1.97-1.94-1.49-3.25c1.54-4.16,4.61-7.47,8.65-9.32       c4.04-1.85,8.55-2.02,12.71-0.47c8.57,3.19,12.96,12.76,9.78,21.33c-0.23,0.63-0.71,1.15-1.32,1.43       C435.48,98.43,435.11,98.52,434.74,98.52z M411.87,84.79l21.16,7.87c0.73-5.22-2.26-10.48-7.43-12.41       c-2.89-1.08-6.03-0.96-8.84,0.33C414.73,81.51,413.05,82.96,411.87,84.79z"/></g><g><path d="M375.53,102.59c-1,0-1.94-0.59-2.34-1.57l-0.15-0.36c-0.83-2.03-1.62-3.96-2.36-5.77c-0.53-1.29,0.08-2.77,1.37-3.3       c1.29-0.52,2.76,0.08,3.3,1.37c0.75,1.82,1.54,3.76,2.37,5.79l0.15,0.36c0.53,1.29-0.09,2.77-1.38,3.29       C376.17,102.53,375.85,102.59,375.53,102.59z"/></g><g><path d="M427.22,228.5c-0.99,0-1.94-0.59-2.34-1.57c-2.44-5.98-5.2-12.71-8.18-19.9c-0.53-1.29,0.08-2.77,1.37-3.3       c1.28-0.53,2.77,0.08,3.3,1.37c2.98,7.2,5.74,13.94,8.19,19.93c0.53,1.29-0.09,2.76-1.38,3.29       C427.86,228.44,427.54,228.5,427.22,228.5z"/></g><g><path d="M358.3,98.52c-1,0-1.95-0.6-2.35-1.59l-0.01-0.02c-3.2-8.64,1.19-18.21,9.76-21.39c4.16-1.55,8.67-1.38,12.71,0.47       c4.03,1.85,7.1,5.16,8.65,9.32c0.49,1.31-0.18,2.76-1.49,3.25l-26.39,9.81C358.89,98.47,358.6,98.52,358.3,98.52z M371.5,79.52       c-1.36,0-2.72,0.24-4.03,0.73c-5.16,1.92-8.14,7.16-7.42,12.41l21.15-7.86c-1.18-1.83-2.86-3.29-4.88-4.22       C374.77,79.87,373.14,79.52,371.5,79.52z"/></g></g></g><g><g><g><path d="M289.91,438.81h-181.2c-1.39,0-2.53-1.13-2.53-2.52V309.6c0-1.4,1.13-2.52,2.53-2.52h181.2c1.4,0,2.52,1.13,2.52,2.52       v126.69C292.43,437.68,291.3,438.81,289.91,438.81z M111.24,433.76h176.15V312.12H111.24V433.76z"/></g><g><g><path d="M268.77,423.88H128.5c-1.39,0-2.52-1.13-2.52-2.52V334c0-1.4,1.13-2.52,2.52-2.52h140.27c1.4,0,2.52,1.13,2.52,2.52        v87.35C271.29,422.75,270.16,423.88,268.77,423.88z M131.03,418.83h135.22v-82.3H131.03V418.83z"/></g><g><g><path d="M268.77,364.94H128.5c-1.39,0-2.52-1.13-2.52-2.53c0-1.4,1.13-2.52,2.52-2.52h140.27c1.4,0,2.52,1.13,2.52,2.52         C271.29,363.82,270.16,364.94,268.77,364.94z"/></g><g><path d="M268.77,395.47H128.5c-1.39,0-2.52-1.13-2.52-2.52s1.13-2.52,2.52-2.52h140.27c1.4,0,2.52,1.13,2.52,2.52         S270.16,395.47,268.77,395.47z"/></g></g><g><g><path d="M174.39,423.88c-1.39,0-2.53-1.13-2.53-2.52V334c0-1.4,1.13-2.52,2.53-2.52s2.52,1.13,2.52,2.52v87.35         C176.92,422.75,175.79,423.88,174.39,423.88z"/></g><g><path d="M222.88,423.88c-1.39,0-2.52-1.13-2.52-2.52V334c0-1.4,1.13-2.52,2.52-2.52c1.39,0,2.53,1.13,2.53,2.52v87.35         C225.4,422.75,224.27,423.88,222.88,423.88z"/></g></g></g><g><g><path d="M118.96,323.16c-1.39,0-2.53-1.13-2.53-2.52v-22.76c0-1.4,1.13-2.52,2.53-2.52c1.39,0,2.53,1.13,2.53,2.52v22.76        C121.48,322.03,120.35,323.16,118.96,323.16z"/></g><g><path d="M132.34,323.16c-1.39,0-2.52-1.13-2.52-2.52v-22.76c0-1.4,1.13-2.52,2.52-2.52c1.39,0,2.53,1.13,2.53,2.52v22.76        C134.86,322.03,133.73,323.16,132.34,323.16z"/></g><g><path d="M145.71,323.16c-1.39,0-2.52-1.13-2.52-2.52v-22.76c0-1.4,1.13-2.52,2.52-2.52c1.39,0,2.53,1.13,2.53,2.52v22.76        C148.24,322.03,147.11,323.16,145.71,323.16z"/></g><g><path d="M159.09,323.16c-1.39,0-2.52-1.13-2.52-2.52v-22.76c0-1.4,1.13-2.52,2.52-2.52s2.53,1.13,2.53,2.52v22.76        C161.62,322.03,160.49,323.16,159.09,323.16z"/></g><g><path d="M172.47,323.16c-1.39,0-2.52-1.13-2.52-2.52v-22.76c0-1.4,1.13-2.52,2.52-2.52s2.52,1.13,2.52,2.52v22.76        C175,322.03,173.86,323.16,172.47,323.16z"/></g><g><path d="M185.85,323.16c-1.39,0-2.53-1.13-2.53-2.52v-22.76c0-1.4,1.13-2.52,2.53-2.52s2.52,1.13,2.52,2.52v22.76        C188.37,322.03,187.24,323.16,185.85,323.16z"/></g><g><path d="M199.23,323.16c-1.39,0-2.53-1.13-2.53-2.52v-22.76c0-1.4,1.13-2.52,2.53-2.52s2.52,1.13,2.52,2.52v22.76        C201.75,322.03,200.62,323.16,199.23,323.16z"/></g><g><path d="M212.6,323.16c-1.39,0-2.53-1.13-2.53-2.52v-22.76c0-1.4,1.13-2.52,2.53-2.52c1.39,0,2.52,1.13,2.52,2.52v22.76        C215.13,322.03,214,323.16,212.6,323.16z"/></g><g><path d="M225.98,323.16c-1.39,0-2.52-1.13-2.52-2.52v-22.76c0-1.4,1.13-2.52,2.52-2.52c1.39,0,2.53,1.13,2.53,2.52v22.76        C228.51,322.03,227.38,323.16,225.98,323.16z"/></g><g><path d="M239.36,323.16c-1.39,0-2.52-1.13-2.52-2.52v-22.76c0-1.4,1.13-2.52,2.52-2.52c1.4,0,2.53,1.13,2.53,2.52v22.76        C241.88,322.03,240.76,323.16,239.36,323.16z"/></g><g><path d="M252.74,323.16c-1.4,0-2.52-1.13-2.52-2.52v-22.76c0-1.4,1.13-2.52,2.52-2.52s2.52,1.13,2.52,2.52v22.76        C255.26,322.03,254.13,323.16,252.74,323.16z"/></g><g><path d="M266.12,323.16c-1.4,0-2.52-1.13-2.52-2.52v-22.76c0-1.4,1.13-2.52,2.52-2.52s2.52,1.13,2.52,2.52v22.76        C268.64,322.03,267.51,323.16,266.12,323.16z"/></g><g><path d="M279.49,323.16c-1.4,0-2.52-1.13-2.52-2.52v-22.76c0-1.4,1.13-2.52,2.52-2.52s2.52,1.13,2.52,2.52v22.76        C282.02,322.03,280.89,323.16,279.49,323.16z"/></g></g></g><g><path d="M146.03,357.23c-0.8,0-1.58-0.38-2.07-1.07l-4.83-6.87c-0.8-1.14-0.53-2.72,0.61-3.52s2.72-0.53,3.52,0.61l3.52,5.02      l15.54-8.57c1.22-0.67,2.76-0.23,3.43,0.99c0.67,1.22,0.23,2.76-0.99,3.43l-17.53,9.67      C146.86,357.13,146.44,357.23,146.03,357.23z"/></g><g><path d="M192.29,385.04c-0.8,0-1.58-0.38-2.07-1.07l-4.83-6.87c-0.8-1.14-0.53-2.72,0.62-3.52c1.14-0.8,2.71-0.53,3.52,0.61      l3.52,5.02l15.54-8.57c1.22-0.67,2.76-0.23,3.43,0.99c0.67,1.22,0.23,2.76-0.99,3.43l-17.53,9.66      C193.12,384.94,192.7,385.04,192.29,385.04z"/></g><g><path d="M192.96,413.9c-0.8,0-1.58-0.38-2.07-1.07l-4.83-6.87c-0.8-1.14-0.53-2.72,0.62-3.52c1.14-0.8,2.71-0.52,3.52,0.61      l3.52,5.02l15.54-8.57c1.23-0.67,2.76-0.23,3.43,0.99c0.67,1.22,0.23,2.76-0.99,3.43l-17.53,9.67      C193.79,413.8,193.38,413.9,192.96,413.9z"/></g></g></g></g></svg>