<?xml version="1.0" ?><svg id="Layer_1" style="enable-background:new 0 0 512 512;" version="1.1" viewBox="0 0 512 512" xml:space="preserve" xmlns="http://www.w3.org/2000/svg" xmlns:xlink="http://www.w3.org/1999/xlink"><style type="text/css">
	.st0{fill:#030303;}
</style><g><g><path class="st0" d="M475.72,422.91c-12.74,0-23.1-10.37-23.1-23.12c0-12.75,10.36-23.12,23.1-23.12    c12.74,0,23.1,10.37,23.1,23.12C498.82,412.54,488.46,422.91,475.72,422.91z M475.72,381.72c-9.95,0-18.05,8.11-18.05,18.07    c0,9.96,8.1,18.07,18.05,18.07c9.95,0,18.05-8.11,18.05-18.07C493.77,389.83,485.67,381.72,475.72,381.72z"/></g><g><path class="st0" d="M95.36,247.93c-12.74,0-23.1-10.37-23.1-23.12c0-12.75,10.36-23.12,23.1-23.12s23.1,10.37,23.1,23.12    C118.46,237.55,108.1,247.93,95.36,247.93z M95.36,206.73c-9.95,0-18.05,8.11-18.05,18.07c0,9.96,8.1,18.07,18.05,18.07    s18.05-8.11,18.05-18.07C113.41,214.84,105.32,206.73,95.36,206.73z"/></g><g><g><path class="st0" d="M333.41,246.48c-0.65,0-1.29-0.25-1.78-0.74c-0.99-0.99-0.99-2.58,0-3.57l12.08-12.11     c0.47-0.48,1.12-0.74,1.79-0.74c1.4,0,2.53,1.13,2.53,2.52c0,0.78-0.35,1.48-0.91,1.94l-11.92,11.95     C334.7,246.23,334.05,246.48,333.41,246.48z"/></g><g><path class="st0" d="M359.56,220.29c-0.65,0-1.29-0.25-1.79-0.74c-0.99-0.99-0.99-2.58,0-3.57l12.1-12.11     c0.99-0.99,2.58-0.99,3.57,0c0.99,0.99,0.99,2.58,0,3.57l-12.1,12.11C360.85,220.04,360.2,220.29,359.56,220.29z"/></g><g><path class="st0" d="M371.66,246.48c-0.65,0-1.29-0.25-1.79-0.74l-12.1-12.11c-0.99-0.99-0.99-2.58,0-3.57     c0.99-0.98,2.58-0.99,3.57,0l12.1,12.11c0.99,0.99,0.99,2.59,0,3.57C372.95,246.23,372.3,246.48,371.66,246.48z"/></g><g><path class="st0" d="M345.51,220.29h-0.02c-0.67,0-1.31-0.27-1.79-0.74l-12.08-12.11c-0.98-0.99-0.98-2.59,0-3.57     s2.59-0.98,3.57,0l11.99,12.02c0.51,0.46,0.83,1.13,0.83,1.87C348.02,219.16,346.9,220.29,345.51,220.29z"/></g></g><g><g><path class="st0" d="M314.28,52.54c-0.65,0-1.29-0.25-1.78-0.74c-0.99-0.99-0.99-2.58,0-3.57l12.08-12.11     c0.47-0.48,1.12-0.74,1.79-0.74c1.4,0,2.53,1.13,2.53,2.52c0,0.78-0.35,1.48-0.91,1.94L316.07,51.8     C315.58,52.29,314.93,52.54,314.28,52.54z"/></g><g><path class="st0" d="M340.43,26.35c-0.65,0-1.29-0.25-1.79-0.74c-0.99-0.99-0.99-2.58,0-3.57l12.1-12.11     c0.99-0.99,2.58-0.99,3.57,0c0.99,0.99,0.99,2.58,0,3.57l-12.1,12.11C341.72,26.1,341.08,26.35,340.43,26.35z"/></g><g><path class="st0" d="M352.53,52.54c-0.65,0-1.29-0.25-1.79-0.74l-12.1-12.11c-0.99-0.99-0.99-2.59,0-3.57     c0.99-0.98,2.58-0.99,3.57,0l12.1,12.11c0.99,0.99,0.99,2.59,0,3.57C353.82,52.29,353.18,52.54,352.53,52.54z"/></g><g><path class="st0" d="M326.38,26.35h-0.02c-0.67,0-1.31-0.27-1.79-0.74l-12.08-12.11c-0.98-0.99-0.98-2.59,0-3.57     c0.99-0.99,2.59-0.98,3.57,0l12,12.02c0.51,0.46,0.83,1.13,0.83,1.87C328.9,25.22,327.78,26.35,326.38,26.35z"/></g></g><g><g><g><path class="st0" d="M96.73,476.13H43.96c-1.4,0-2.52-1.13-2.52-2.52c0-1.4,1.13-2.52,2.52-2.52h52.78      c1.4,0,2.52,1.13,2.52,2.52C99.26,475,98.13,476.13,96.73,476.13z"/></g><g><path class="st0" d="M28.94,476.13H6.04c-1.4,0-2.52-1.13-2.52-2.52c0-1.4,1.13-2.52,2.52-2.52h22.91c1.4,0,2.52,1.13,2.52,2.52      C31.47,475,30.34,476.13,28.94,476.13z"/></g></g><g><g><path class="st0" d="M108.19,499.97H55.41c-1.4,0-2.52-1.13-2.52-2.52c0-1.4,1.13-2.52,2.52-2.52h52.78      c1.4,0,2.52,1.13,2.52,2.52C110.71,498.84,109.58,499.97,108.19,499.97z"/></g><g><path class="st0" d="M40.4,499.97H17.49c-1.4,0-2.52-1.13-2.52-2.52c0-1.4,1.13-2.52,2.52-2.52H40.4c1.4,0,2.52,1.13,2.52,2.52      C42.92,498.84,41.79,499.97,40.4,499.97z"/></g></g></g><g><g><g><path class="st0" d="M455.34,478.97h-52.78c-1.4,0-2.52-1.13-2.52-2.52c0-1.4,1.13-2.52,2.52-2.52h52.78      c1.4,0,2.52,1.13,2.52,2.52C457.86,477.84,456.73,478.97,455.34,478.97z"/></g><g><path class="st0" d="M387.54,478.97h-22.91c-1.4,0-2.52-1.13-2.52-2.52c0-1.4,1.13-2.52,2.52-2.52h22.91      c1.4,0,2.52,1.13,2.52,2.52C390.07,477.84,388.94,478.97,387.54,478.97z"/></g></g><g><g><path class="st0" d="M466.79,502.81h-52.78c-1.4,0-2.52-1.13-2.52-2.52c0-1.4,1.13-2.52,2.52-2.52h52.78      c1.4,0,2.52,1.13,2.52,2.52C469.31,501.69,468.18,502.81,466.79,502.81z"/></g><g><path class="st0" d="M399,502.81h-22.91c-1.4,0-2.52-1.13-2.52-2.52c0-1.4,1.13-2.52,2.52-2.52H399c1.4,0,2.52,1.13,2.52,2.52      C401.52,501.69,400.39,502.81,399,502.81z"/></g></g></g><g><g><path class="st0" d="M47.39,108.51c-1.4,0-2.52-1.13-2.52-2.52V53.16c0-1.39,1.13-2.52,2.52-2.52c1.4,0,2.52,1.13,2.52,2.52     v52.82C49.92,107.37,48.79,108.51,47.39,108.51z"/></g><g><path class="st0" d="M47.39,146.46c-1.4,0-2.52-1.13-2.52-2.52v-22.93c0-1.39,1.13-2.52,2.52-2.52c1.4,0,2.52,1.13,2.52,2.52     v22.93C49.92,145.33,48.79,146.46,47.39,146.46z"/></g></g><g><g><path class="st0" d="M27.29,358.69c-1.4,0-2.52-1.13-2.52-2.52v-52.82c0-1.4,1.13-2.52,2.52-2.52c1.4,0,2.52,1.13,2.52,2.52     v52.82C29.82,357.56,28.69,358.69,27.29,358.69z"/></g><g><path class="st0" d="M27.29,396.64c-1.4,0-2.52-1.13-2.52-2.52v-22.93c0-1.4,1.13-2.52,2.52-2.52c1.4,0,2.52,1.13,2.52,2.52     v22.93C29.82,395.51,28.69,396.64,27.29,396.64z"/></g></g><g><g><g><g><g><g><g><g><path class="st0" d="M496.95,91.49c-0.62,0-1.27-0.06-1.93-0.17l-75.69-13.17c-1.37-0.24-2.29-1.55-2.05-2.92           c0.24-1.37,1.52-2.29,2.92-2.06l75.65,13.16c0.35,0.06,0.73,0.1,1.1,0.1c3.16,0,5.84-2.26,6.39-5.37           c0.61-3.52-1.76-6.88-5.29-7.5l-78.72-13.71c-0.2-0.03-0.35-0.05-0.51-0.09c-1.35-0.34-2.18-1.71-1.84-3.06           c0.33-1.32,1.65-2.14,2.96-1.86c0.13,0.02,0.36,0.06,0.43,0.08l78.54,13.67c6.27,1.09,10.49,7.08,9.4,13.34           C507.34,87.48,502.56,91.49,496.95,91.49z"/></g><g><path class="st0" d="M419.44,158.6c-1.26,0-2.34-0.94-2.5-2.22c-0.17-1.38,0.81-2.64,2.19-2.82l0.09-0.01l78.83-13.73           c3.53-0.62,5.9-3.97,5.29-7.47c-0.01-0.05-0.01-0.09-0.02-0.14c-0.32-1.65-1.25-3.09-2.64-4.07           c-1.42-1-3.13-1.39-4.83-1.09l-75.82,13.22c-1.4,0.23-2.68-0.68-2.92-2.05c-0.24-1.37,0.68-2.68,2.05-2.92l75.82-13.22           c3.02-0.52,6.08,0.16,8.6,1.93c2.52,1.77,4.2,4.42,4.73,7.44c0.01,0.05,0.02,0.11,0.02,0.16c1,6.2-3.2,12.09-9.42,13.18           l-78.66,13.7c-0.03,0.01-0.22,0.05-0.51,0.08C419.65,158.59,419.54,158.6,419.44,158.6z"/></g></g><g><g><path class="st0" d="M390.89,100.87c-0.09,0-0.18,0-0.27-0.01c-1.39-0.15-2.39-1.39-2.24-2.78           c2.23-20.88,10.93-40.87,11.29-41.71c1.78-3.57,8.71-4.02,20.64-1.45c1.36,0.29,2.23,1.63,1.94,3           c-0.29,1.36-1.64,2.23-3,1.94c-6.56-1.4-13.45-1.9-15.1-1.11c-0.95,2.26-8.73,21-10.75,39.88           C393.26,99.91,392.17,100.87,390.89,100.87z"/></g><g><path class="st0" d="M410.62,111.07c-1.35,0-2.46-1.06-2.52-2.42c-0.68-16.34,9.08-33.52,9.49-34.24           c0.69-1.21,2.23-1.63,3.45-0.93c1.21,0.69,1.62,2.24,0.93,3.45c-0.09,0.16-9.45,16.66-8.83,31.52           c0.06,1.39-1.02,2.57-2.42,2.63C410.69,111.07,410.65,111.07,410.62,111.07z"/></g></g><g><path class="st0" d="M407.81,160.12c-4.38,0-7.09-0.99-8.08-2.97c-0.42-0.96-9.11-20.95-11.35-41.83          c-0.15-1.39,0.86-2.63,2.24-2.78c1.4-0.14,2.63,0.86,2.78,2.24c2,18.65,9.6,37.17,10.75,39.88          c1.66,0.79,8.55,0.29,15.1-1.12c1.35-0.3,2.7,0.57,3,1.94c0.29,1.36-0.57,2.71-1.94,3          C415.23,159.57,411.06,160.12,407.81,160.12z"/></g><g><path class="st0" d="M419.78,140.61c-0.88,0-1.72-0.45-2.19-1.27c-0.41-0.72-10.17-17.91-9.49-34.24          c0.06-1.39,1.27-2.44,2.63-2.42c1.39,0.06,2.48,1.23,2.42,2.63c-0.62,14.86,8.73,31.36,8.83,31.52          c0.69,1.21,0.28,2.75-0.93,3.45C420.64,140.5,420.21,140.61,419.78,140.61z"/></g></g><g><path class="st0" d="M390.89,117.57h-20c-1.4,0-2.52-1.13-2.52-2.52c0-1.39,1.13-2.52,2.52-2.52h17.48v-11.65h-17.34         c-1.4,0-2.52-1.13-2.52-2.52c0-1.39,1.13-2.52,2.52-2.52h19.86c1.4,0,2.52,1.13,2.52,2.52v16.7         C393.42,116.44,392.29,117.57,390.89,117.57z"/></g><g><path class="st0" d="M353.68,128.32c-0.57,0-1.15-0.03-1.69-0.1c-1.38-0.18-2.36-1.44-2.19-2.82         c0.18-1.38,1.47-2.36,2.82-2.19c0.34,0.04,0.7,0.06,1.06,0.06c6.31,0,12.18-3.66,14.93-9.33c1.16-2.31,1.75-4.77,1.75-7.37         c0-2.52-0.54-4.91-1.61-7.13c-2.75-5.82-8.66-9.57-15.07-9.57c-0.36,0-0.72,0.02-1.06,0.06c-1.39,0.18-2.65-0.81-2.82-2.19         c-0.18-1.38,0.81-2.65,2.19-2.82c0.54-0.07,1.11-0.1,1.69-0.1c8.35,0,16.06,4.88,19.63,12.44c1.39,2.89,2.1,6.02,2.1,9.31         c0,3.39-0.76,6.63-2.27,9.61C369.56,123.54,361.92,128.32,353.68,128.32z"/></g><g><path class="st0" d="M352.31,128.24c-1.4,0-2.52-1.13-2.52-2.52V87.43c0-1.39,1.13-2.52,2.52-2.52c1.4,0,2.52,1.13,2.52,2.52         v38.28C354.84,127.11,353.71,128.24,352.31,128.24z"/></g></g><g><g><g><path class="st0" d="M333.41,129.35H149.03c-13.43,0-24.35-10.16-24.35-22.65c0-6.09,2.57-11.79,7.25-16.07          c4.56-4.24,10.64-6.58,17.11-6.58h184.38c1.4,0,2.52,1.13,2.52,2.52v40.26C335.93,128.22,334.8,129.35,333.41,129.35z           M149.03,89.09c-5.18,0-10.04,1.86-13.68,5.25c-3.63,3.32-5.62,7.7-5.62,12.36c0,9.71,8.66,17.6,19.3,17.6h181.86V89.09          H149.03z"/></g><g><path class="st0" d="M148.24,117.69c-6.06,0-10.99-4.93-10.99-11s4.93-11,10.99-11c6.06,0,10.99,4.93,10.99,11          S154.3,117.69,148.24,117.69z M148.24,100.75c-3.28,0-5.94,2.67-5.94,5.95s2.67,5.95,5.94,5.95c3.27,0,5.94-2.67,5.94-5.95          S151.52,100.75,148.24,100.75z"/></g></g><g><g><path class="st0" d="M271.83,321.94c-3.03,0-6.1-0.42-9.16-1.28c-8.97-2.43-16.73-8.26-21.85-16.42L135.24,124.97          c-0.71-1.2-0.31-2.75,0.89-3.46c1.2-0.71,2.75-0.31,3.46,0.9l105.54,179.21c4.4,7.02,11.12,12.07,18.87,14.18          c7.67,2.15,15.41,1.11,21.84-2.91c11.57-7.23,15.92-22.52,10.34-36.35c-0.71-1.81-1.61-3.58-2.68-5.28l-94.74-143.04          c-0.77-1.16-0.45-2.73,0.71-3.5c1.16-0.77,2.73-0.45,3.5,0.71l94.77,143.1c1.26,2.01,2.3,4.06,3.12,6.14          c6.49,16.09,1.29,33.97-12.36,42.5C283.46,320.33,277.74,321.94,271.83,321.94z"/></g><g><path class="st0" d="M127.2,108.9c-1.4,0-2.52-1.12-2.52-2.51v-0.03c0-1.39,1.13-2.52,2.52-2.52s2.52,1.13,2.52,2.52          C129.72,107.75,128.59,108.9,127.2,108.9z"/></g><g><path class="st0" d="M269.99,308.83c-1.61,0-3.23-0.18-4.83-0.55c-5.57-1.28-10.3-4.65-13.32-9.49          c-4.84-7.75-4.25-17.71,1.47-24.78c1.49-1.84,3.27-3.41,5.31-4.69c9.17-5.76,21.2-3.75,27.97,4.7          c0.52,0.65,1.02,1.33,1.48,2.08c6.26,9.98,3.22,23.2-6.77,29.47c0,0,0,0,0,0C277.85,307.72,273.95,308.83,269.99,308.83z           M269.95,271.09c-2.97,0-5.98,0.81-8.66,2.5c-1.56,0.98-2.93,2.19-4.07,3.59c-4.36,5.39-4.81,13-1.11,18.93          c2.3,3.69,5.92,6.27,10.17,7.24c4.25,0.98,8.63,0.24,12.32-2.07c7.63-4.79,9.95-14.89,5.17-22.51          c-0.36-0.57-0.73-1.09-1.14-1.59C279.46,273.2,274.74,271.09,269.95,271.09z M279.95,303.42h0.02H279.95z"/></g></g></g></g><g><path class="st0" d="M324.47,109.22H168.63c-1.4,0-2.52-1.13-2.52-2.52c0-1.39,1.13-2.52,2.52-2.52h155.85       c1.4,0,2.52,1.13,2.52,2.52C327,108.09,325.87,109.22,324.47,109.22z"/></g></g><g><path class="st0" d="M269.98,308.83c-1.61,0-3.23-0.18-4.83-0.55c-5.57-1.28-10.3-4.65-13.32-9.49      c-4.84-7.75-4.25-17.71,1.47-24.78c0.88-1.08,2.47-1.25,3.55-0.37c1.08,0.88,1.25,2.47,0.37,3.55      c-4.37,5.4-4.81,13.01-1.11,18.93c2.3,3.69,5.92,6.27,10.17,7.24c4.25,0.98,8.63,0.24,12.33-2.07      c7.63-4.79,9.95-14.89,5.17-22.51c-0.36-0.57-0.73-1.09-1.14-1.59c-0.88-1.08-0.71-2.67,0.37-3.55      c1.08-0.88,2.68-0.71,3.55,0.37c0.53,0.65,1.03,1.34,1.49,2.09c6.26,9.98,3.22,23.2-6.77,29.47      C277.85,307.72,273.95,308.83,269.98,308.83z"/></g><g><path class="st0" d="M400.43,351.25H67.28c-7,0-12.69-5.7-12.69-12.7v-52.82c0-6.99,5.69-12.67,12.69-12.67h159.6      c0.9,0,1.72,0.47,2.17,1.24l16.08,27.31c4.4,7.02,11.12,12.07,18.87,14.18c7.67,2.15,15.41,1.11,21.84-2.91      c11.57-7.23,15.92-22.52,10.34-36.35c-0.31-0.78-0.22-1.66,0.25-2.36c0.47-0.7,1.26-1.11,2.09-1.11h101.9      c7,0,12.69,5.68,12.69,12.67v52.82C413.12,345.56,407.42,351.25,400.43,351.25z M67.28,278.11c-4.21,0-7.64,3.42-7.64,7.62      v52.82c0,4.22,3.43,7.65,7.64,7.65h333.15c4.21,0,7.64-3.43,7.64-7.65v-52.82c0-4.2-3.43-7.62-7.64-7.62h-98.34      c4.5,15.14-0.88,31.13-13.56,39.05c-7.65,4.79-16.83,6.03-25.86,3.5c-8.97-2.43-16.73-8.26-21.85-16.42l-15.39-26.13H67.28z"/></g><g><path class="st0" d="M185.07,453.38c-1.4,0-2.52-1.13-2.52-2.52V348.73c0-1.4,1.13-2.52,2.52-2.52c1.4,0,2.52,1.13,2.52,2.52      v102.12C187.59,452.25,186.46,453.38,185.07,453.38z"/></g><g><path class="st0" d="M277.13,453.38c-0.58,0-1.17-0.2-1.64-0.61c-50.53-43.25-38.44-103.95-38.31-104.56      c0.28-1.36,1.6-2.25,2.99-1.95c1.36,0.29,2.24,1.62,1.95,2.99c-0.12,0.58-11.55,58.43,36.65,99.69c1.06,0.91,1.18,2.5,0.28,3.56      C278.55,453.08,277.84,453.38,277.13,453.38z"/></g><g><path class="st0" d="M311.09,490.89H166.89c-6.24,0-11.31-5.07-11.31-11.31v-19.94c0-6.24,5.07-11.31,11.31-11.31h144.19      c6.24,0,11.31,5.07,11.31,11.31v19.94C322.4,485.82,317.32,490.89,311.09,490.89z M166.89,453.38c-3.45,0-6.26,2.81-6.26,6.26      v19.94c0,3.45,2.81,6.26,6.26,6.26h144.19c3.45,0,6.26-2.81,6.26-6.26v-19.94c0-3.45-2.81-6.26-6.26-6.26H166.89z"/></g></g><g><g><path class="st0" d="M380.89,335.42c-1.4,0-2.52-1.13-2.52-2.52v-41.46c0-1.4,1.13-2.52,2.52-2.52c1.4,0,2.52,1.13,2.52,2.52      v41.46C383.41,334.29,382.28,335.42,380.89,335.42z"/></g><g><path class="st0" d="M356.12,335.42c-1.4,0-2.52-1.13-2.52-2.52v-41.46c0-1.4,1.13-2.52,2.52-2.52c1.4,0,2.52,1.13,2.52,2.52      v41.46C358.64,334.29,357.51,335.42,356.12,335.42z"/></g></g><g><g><path class="st0" d="M227.92,327.08H76.9c-1.4,0-2.52-1.13-2.52-2.52c0-1.4,1.13-2.52,2.52-2.52h151.02      c1.4,0,2.52,1.13,2.52,2.52C230.44,325.95,229.32,327.08,227.92,327.08z"/></g><g><path class="st0" d="M204.63,302.29H76.9c-1.4,0-2.52-1.13-2.52-2.52c0-1.4,1.13-2.52,2.52-2.52h127.73      c1.4,0,2.52,1.13,2.52,2.52C207.15,301.16,206.02,302.29,204.63,302.29z"/></g></g></g></g></svg>