<?xml version="1.0" encoding="utf-8"?>
<!-- Generator: Adobe Illustrator 22.1.0, SVG Export Plug-In . SVG Version: 6.00 Build 0)  -->
<svg version="1.1" id="logo-light" xmlns="http://www.w3.org/2000/svg" xmlns:xlink="http://www.w3.org/1999/xlink" x="0px" y="0px"
	 viewBox="0 0 102.1 44.5" style="enable-background:new 0 0 102.1 44.5;" xml:space="preserve">
<style type="text/css">
	.st0{fill:#FFFFFF;}
</style>
<g>
	<g>
		<g>
			<path class="st0" d="M66,41.8c0,0.3-0.1,0.5-0.3,0.7c-0.2,0.2-0.5,0.3-0.8,0.3c-0.4,0-0.8-0.1-1.1-0.4l0.2-0.3
				c0.3,0.3,0.6,0.5,0.9,0.5c0.2,0,0.4-0.1,0.5-0.2c0.1-0.1,0.2-0.3,0.2-0.5c0-0.3-0.1-0.5-0.3-0.6c-0.2-0.1-0.4-0.3-0.7-0.5
				c-0.4-0.3-0.6-0.6-0.6-1c0-0.3,0.1-0.5,0.3-0.7c0.2-0.1,0.5-0.2,0.8-0.2c0.2,0,0.4,0,0.5,0.1c0.2,0.1,0.3,0.2,0.4,0.3l-0.2,0.2
				c-0.2-0.3-0.5-0.5-0.8-0.5c-0.4,0-0.6,0.2-0.6,0.5c0,0.3,0.1,0.5,0.4,0.7c0.4,0.3,0.7,0.5,0.8,0.6C65.9,41,66.1,41.4,66,41.8z"/>
			<path class="st0" d="M69.8,38.9l-2.1,5.3l-0.2,0l0.6-1.6l-1.6-3.8h0.6l1.3,3l1.2-3L69.8,38.9z"/>
			<path class="st0" d="M72.4,41.8c0,0.3-0.1,0.5-0.3,0.7c-0.2,0.2-0.5,0.3-0.8,0.3c-0.4,0-0.8-0.1-1.1-0.4l0.2-0.3
				c0.3,0.3,0.6,0.5,0.9,0.5c0.2,0,0.4-0.1,0.5-0.2c0.1-0.1,0.2-0.3,0.2-0.5c0-0.3-0.1-0.5-0.3-0.6c-0.2-0.1-0.4-0.3-0.7-0.5
				c-0.4-0.3-0.6-0.6-0.6-1c0-0.3,0.1-0.5,0.3-0.7c0.2-0.1,0.5-0.2,0.8-0.2c0.2,0,0.4,0,0.5,0.1c0.2,0.1,0.3,0.2,0.4,0.3l-0.2,0.2
				c-0.2-0.3-0.5-0.5-0.8-0.5c-0.4,0-0.6,0.2-0.6,0.5c0,0.3,0.1,0.5,0.4,0.7c0.4,0.3,0.7,0.5,0.8,0.6C72.2,41,72.4,41.4,72.4,41.8z"
				/>
			<path class="st0" d="M74.4,39.1h-0.7v2.4c0,0.4,0.1,0.7,0.2,0.8c0.1,0.2,0.3,0.2,0.5,0.2v0.2c-0.8,0-1.3-0.4-1.3-1.2v-2.4h-0.4
				v-0.2h0.4v-0.4h0.6v0.4h0.7V39.1z"/>
			<path class="st0" d="M78.2,40.3h-2.4v-0.2h1.8c0-0.7-0.3-1.1-0.9-1.1c-0.4,0-0.7,0.2-0.9,0.5c-0.2,0.3-0.4,0.8-0.4,1.3
				c0,0.5,0.1,1,0.3,1.3c0.2,0.3,0.6,0.5,1,0.5c0.5,0,0.9-0.2,1.2-0.6l0.2,0.2c-0.4,0.4-0.8,0.5-1.3,0.5c-0.5,0-1-0.2-1.4-0.6
				c-0.4-0.4-0.6-0.8-0.6-1.4s0.2-1,0.5-1.4c0.4-0.4,0.8-0.6,1.3-0.6c0.4,0,0.8,0.1,1.1,0.4C78,39.6,78.2,39.9,78.2,40.3z"/>
			<path class="st0" d="M83.6,42.7H83v-2.6c0-0.4-0.1-0.6-0.2-0.8c-0.1-0.2-0.3-0.2-0.5-0.2c-0.4,0-0.8,0.3-1,0.9c0,0.1,0,0.1,0,0.1
				v2.6h-0.6v-2.6c0-0.4-0.1-0.6-0.2-0.8C80.4,39.1,80.3,39,80,39c-0.2,0-0.4,0.1-0.6,0.2c-0.2,0.2-0.4,0.4-0.5,0.8v2.7h-0.6v-3.8
				H79v0.5c0.3-0.4,0.7-0.6,1.1-0.6c0.6,0,1,0.2,1.1,0.6c0.3-0.4,0.7-0.6,1.1-0.6c0.8,0,1.2,0.4,1.2,1.2V42.7z"/>
			<path class="st0" d="M86.3,41.8c0,0.3-0.1,0.5-0.3,0.7c-0.2,0.2-0.5,0.3-0.8,0.3c-0.4,0-0.8-0.1-1.1-0.4l0.2-0.3
				c0.3,0.3,0.6,0.5,0.9,0.5c0.2,0,0.4-0.1,0.5-0.2c0.1-0.1,0.2-0.3,0.2-0.5c0-0.3-0.1-0.5-0.3-0.6c-0.2-0.1-0.4-0.3-0.7-0.5
				c-0.4-0.3-0.6-0.6-0.6-1c0-0.3,0.1-0.5,0.3-0.7c0.2-0.1,0.5-0.2,0.8-0.2c0.2,0,0.4,0,0.5,0.1c0.2,0.1,0.3,0.2,0.4,0.3L86,39.5
				c-0.2-0.3-0.5-0.5-0.8-0.5c-0.4,0-0.6,0.2-0.6,0.5c0,0.3,0.1,0.5,0.4,0.7c0.4,0.3,0.7,0.5,0.8,0.6C86.2,41,86.3,41.4,86.3,41.8z"
				/>
		</g>
	</g>
	<g>
		<path class="st0" d="M61.3,37.7l-4.2,0c-0.1,0-0.1,0-0.1,0.1c-2.7,4.3-8.1,5.3-7.9,5.3c2,0.4,8.3,1.5,11.2-3.4l1.1-1.8
			C61.5,37.9,61.4,37.7,61.3,37.7z M59,39c-0.5,0.5-1,1.4-1.5,1.8c-1.5,1.3-3.2,2-5.2,2c0.7-0.3,1.4-0.6,2.2-1
			c3.1-1.3,3.1-2.7,3.7-3.1c0.3-0.2,1-0.2,1.1,0C59.4,38.8,59.2,38.8,59,39z"/>
		<path class="st0" d="M22.5,25.5c-0.1-0.1-0.1-0.3,0-0.4L31,15c0.2-0.2-11.3,8.1-11.3,8.1c-0.2,0.2-0.6,0.1-0.6-0.2V0.6
			c0-0.3-0.3-0.4-0.5-0.3l-3.8,2.9c-0.1,0.1-0.1,0.2-0.1,0.3v25.7v8.9c0,0.2,0.1,0.3,0.3,0.3h3.8c0.2,0,0.3-0.1,0.3-0.3v-8.8
			c0-0.1,0-0.2,0.1-0.2l0.6-0.8c0.1-0.2,0.4-0.2,0.5,0l7.9,9.8c0.1,0.2,0.3,0.3,0.6,0.3h3.8c0.2,0,0.3-0.2,0.2-0.4L22.5,25.5z"/>
		<path class="st0" d="M79,15.1c0.7,0.1,3.9,1.1,3.9,7v9.8c0,0.1,0,0.1-0.1,0.2c-2,3-4.4,4.4-7.4,4.4c-1.8,0-3.3-0.7-4.5-2.2
			c-1.2-1.4-1.8-3.4-1.8-5.7c0-2.7,0.5-4.8,1.6-6.3c1.1-1.5,2.5-2.3,4.4-2.3c1.8,0,3.4,0.4,4.9,1.3c0.1,0.1,0.3,0,0.4-0.1l0.6-1.1
			c0.1-0.1,0-0.3-0.1-0.4c-1-0.5-2.2-0.9-3.7-1.1c-0.7-0.1-1.4-0.2-2.1-0.2c-2.7,0-5,0.8-7.1,2.5c-2.3,1.9-3.5,4.4-3.5,7.6
			c0,3.1,1.1,5.5,3.3,7.2c2,1.6,4.5,2.4,7.5,2.4c2.9,0,5.2-0.8,6.9-2.3c0.2-0.2,0.5,0,0.5,0.2v0.6v1.6c0,0.2,0.1,0.3,0.3,0.3h1.3
			c1.6,0,2.9-1.3,2.9-2.9l0,0v-0.2V22.1C87.4,15.8,78.9,15,79,15.1z"/>
	</g>
	<path class="st0" d="M74.6,29.6l-1.1,1.1v0.1c0.6-0.1,1.1-0.3,1.6-0.6c0.5-0.3,0.8-0.6,1.2-0.9c0.3-0.3,0.6-0.6,0.7-0.9
		c0.2-0.3,0.3-0.5,0.3-0.7c0-0.3-0.2-0.5-0.6-0.5h-1.4c-0.3,0-0.5,0-0.5-0.1c0-0.1,0.2-0.2,0.5-0.5l1.2-1.1l-0.1-0.1
		c-0.6,0.2-1.1,0.4-1.5,0.7c-0.5,0.3-0.8,0.5-1.2,0.8c-0.3,0.3-0.6,0.6-0.7,0.9c-0.2,0.3-0.3,0.6-0.3,0.8c0,0.3,0.2,0.4,0.6,0.4h1.3
		c0.3,0,0.5,0,0.5,0.1C75.1,29.1,75,29.3,74.6,29.6z"/>
	<path class="st0" d="M56.2,21.7v11.9c0,0.2,0.1,0.3,0.3,0.3h3.8c0.2,0,0.3-0.1,0.3-0.3V21.7c0-5.8,3.2-6.8,3.8-6.9
		C64.6,14.8,56.2,15.5,56.2,21.7z M59,21c-0.2,0.6-0.1,1.4-0.1,2c0,1,0,2,0,3c0,1.2,0,1.6,0,2.8c0,0.8,0,1.5-0.3,2.2
		c-0.1,0.3-0.3,0.5-0.6,0.7c-0.1,0-0.1,0.1-0.4,0.1c0-0.2,0-0.3,0.1-0.4c0.3-0.9,0.2-1.9,0.2-2.9c0-1.2,0-1.7,0-2.9
		c0-1.1,0-2.3,0-3.5c0-0.3,0-0.7,0.1-1c0.1-0.3,0.4-0.4,1-0.5C59,20.9,59.1,21,59,21z"/>
	<path class="st0" d="M44.6,14.8c0.6,0.1,3.8,1.1,3.8,6.9v9.7c0,0.1,0,3.8,0,4.1V36v1.5c0,0.2,0.1,0.3,0.3,0.3h1.3
		c1.6,0,2.8-1.3,2.8-2.8v-0.2V21.7C52.9,15.5,44.6,14.8,44.6,14.8z M51.4,21c-0.2,0.6-0.1,1.4-0.1,2c0,1,0,2,0,3c0,1.2,0,5.4,0,6.6
		c0,0.8,0,1.5-0.3,2.2c-0.1,0.3-0.3,0.5-0.6,0.7c-0.1,0-0.1,0.1-0.4,0.1c0-0.2,0-0.3,0.1-0.4c0.3-0.9,0.2-1.9,0.2-2.9
		c0-1.2,0-5.5,0-6.6c0-1.1,0-2.3,0-3.5c0-0.3,0-0.7,0.1-1c0.1-0.3,0.4-0.4,1-0.5C51.4,20.9,51.4,21,51.4,21z"/>
	<path class="st0" d="M48.5,31.3c0,0.1,0,0.1-0.1,0.2c-1.9,2.9-4.4,4.4-7.3,4.4c-1.8,0-3.2-0.7-4.4-2.1c-1.2-1.4-1.8-3.3-1.8-5.6
		c0-2.7,0.5-4.7,1.5-6.2c1-1.5,2.5-2.2,4.3-2.2c1.7,0,3.3,0.4,4.8,1.3c0.1,0.1,0.3,0,0.4-0.1l0.6-1.1c0.1-0.1,0-0.3-0.1-0.4
		c-1-0.5-2.2-0.9-3.7-1.1c-0.6-0.1-1.3-0.2-2.1-0.2c-2.6,0-4.9,0.8-6.9,2.4c-2.3,1.8-3.4,4.3-3.4,7.5c0,3,1.1,5.4,3.3,7.1
		c2,1.6,4.5,2.4,7.4,2.4c2.8,0,5.1-0.7,6.8-2.2c0.2-0.2,0.5,0,0.5,0.2v0.6V31.3z"/>
</g>
</svg>
